<mxfile host="65bd71144e">
    <diagram id="6EXt89o7fHejoy0miyVt" name="Page-1">
        <mxGraphModel dx="2581" dy="920" grid="1" gridSize="10" guides="1" tooltips="1" connect="1" arrows="1" fold="1" page="1" pageScale="1" pageWidth="850" pageHeight="1100" math="0" shadow="0">
            <root>
                <mxCell id="0"/>
                <mxCell id="1" parent="0"/>
                <mxCell id="142" value="" style="rounded=0;whiteSpace=wrap;html=1;fontFamily=JetBrains Mono;fontSource=https%3A%2F%2Ffonts.googleapis.com%2Fcss%3Ffamily%3DJetBrains%2BMono;fontSize=14;fillColor=#FFFFFF;" vertex="1" parent="1">
                    <mxGeometry x="10" y="10" width="760" height="420" as="geometry"/>
                </mxCell>
                <mxCell id="143" value="" style="rounded=1;whiteSpace=wrap;html=1;fillColor=none;fontColor=#0066ff;strokeColor=#A0A0A0;arcSize=5;strokeWidth=2;fontFamily=JetBrains Mono;fontSource=https%3A%2F%2Ffonts.googleapis.com%2Fcss%3Ffamily%3DJetBrains%2BMono;gradientColor=none;fillStyle=hatch;" vertex="1" parent="1">
                    <mxGeometry x="210" y="50" width="160" height="160" as="geometry"/>
                </mxCell>
                <mxCell id="144" value="Node 1" style="text;html=1;strokeColor=none;fillColor=none;align=left;verticalAlign=middle;whiteSpace=wrap;rounded=0;fontColor=#0066ff;strokeWidth=2;fontFamily=JetBrains Mono;fontSource=https%3A%2F%2Ffonts.googleapis.com%2Fcss%3Ffamily%3DJetBrains%2BMono;fontSize=14;fontStyle=1" vertex="1" parent="1">
                    <mxGeometry x="220" y="59" width="60" height="20" as="geometry"/>
                </mxCell>
                <mxCell id="145" value="" style="rounded=1;whiteSpace=wrap;html=1;fillColor=none;fontColor=#0066ff;strokeColor=#A0A0A0;arcSize=5;strokeWidth=2;fontFamily=JetBrains Mono;fontSource=https%3A%2F%2Ffonts.googleapis.com%2Fcss%3Ffamily%3DJetBrains%2BMono;gradientColor=none;fillStyle=hatch;" vertex="1" parent="1">
                    <mxGeometry x="390" y="50" width="160" height="160" as="geometry"/>
                </mxCell>
                <mxCell id="146" value="Node 2" style="text;html=1;strokeColor=none;fillColor=none;align=left;verticalAlign=middle;whiteSpace=wrap;rounded=0;fontColor=#0066ff;strokeWidth=2;fontFamily=JetBrains Mono;fontSource=https%3A%2F%2Ffonts.googleapis.com%2Fcss%3Ffamily%3DJetBrains%2BMono;fontSize=14;fontStyle=1" vertex="1" parent="1">
                    <mxGeometry x="400" y="59" width="60" height="20" as="geometry"/>
                </mxCell>
                <mxCell id="147" value="" style="rounded=1;whiteSpace=wrap;html=1;fillColor=none;fontColor=#0066ff;strokeColor=#A0A0A0;arcSize=5;strokeWidth=2;fontFamily=JetBrains Mono;fontSource=https%3A%2F%2Ffonts.googleapis.com%2Fcss%3Ffamily%3DJetBrains%2BMono;gradientColor=none;fillStyle=hatch;" vertex="1" parent="1">
                    <mxGeometry x="570" y="50" width="160" height="160" as="geometry"/>
                </mxCell>
                <mxCell id="148" value="Node 3" style="text;html=1;strokeColor=none;fillColor=none;align=left;verticalAlign=middle;whiteSpace=wrap;rounded=0;fontColor=#0066ff;strokeWidth=2;fontFamily=JetBrains Mono;fontSource=https%3A%2F%2Ffonts.googleapis.com%2Fcss%3Ffamily%3DJetBrains%2BMono;fontSize=14;fontStyle=1" vertex="1" parent="1">
                    <mxGeometry x="580" y="59" width="60" height="20" as="geometry"/>
                </mxCell>
                <mxCell id="149" style="edgeStyle=none;html=1;exitX=0.5;exitY=0.5;exitDx=0;exitDy=0;exitPerimeter=0;entryX=0;entryY=0.5;entryDx=0;entryDy=0;fontFamily=JetBrains Mono;fontSource=https%3A%2F%2Ffonts.googleapis.com%2Fcss%3Ffamily%3DJetBrains%2BMono;fontSize=14;fontColor=#0066FF;strokeWidth=2;fillColor=#60a917;strokeColor=#2D7600;" edge="1" parent="1" source="150" target="143">
                    <mxGeometry relative="1" as="geometry"/>
                </mxCell>
                <mxCell id="150" value="&lt;font color=&quot;#0066ff&quot; style=&quot;font-size: 14px;&quot;&gt;User&lt;/font&gt;" style="shape=umlActor;verticalLabelPosition=bottom;verticalAlign=top;html=1;outlineConnect=0;fillColor=#0066FF;fontColor=#ffffff;strokeColor=#0066FF;strokeWidth=2;fontFamily=JetBrains Mono;fontSource=https%3A%2F%2Ffonts.googleapis.com%2Fcss%3Ffamily%3DJetBrains%2BMono;fontStyle=0;fontSize=14;" vertex="1" parent="1">
                    <mxGeometry x="40" y="100" width="30" height="60" as="geometry"/>
                </mxCell>
                <mxCell id="151" value="Create VirtualDisk" style="text;html=1;strokeColor=none;fillColor=none;align=center;verticalAlign=middle;whiteSpace=wrap;rounded=0;strokeWidth=2;fontFamily=JetBrains Mono;fontSource=https%3A%2F%2Ffonts.googleapis.com%2Fcss%3Ffamily%3DJetBrains%2BMono;fontSize=14;fontColor=#0066FF;opacity=30;" vertex="1" parent="1">
                    <mxGeometry x="110" y="90" width="60" height="30" as="geometry"/>
                </mxCell>
                <mxCell id="152" value="" style="rounded=1;whiteSpace=wrap;html=1;fillColor=none;fontColor=#0066ff;strokeColor=#A0A0A0;arcSize=5;strokeWidth=2;fontFamily=JetBrains Mono;fontSource=https%3A%2F%2Ffonts.googleapis.com%2Fcss%3Ffamily%3DJetBrains%2BMono;gradientColor=none;fillStyle=hatch;" vertex="1" parent="1">
                    <mxGeometry x="210" y="230" width="160" height="160" as="geometry"/>
                </mxCell>
                <mxCell id="153" value="" style="rounded=1;whiteSpace=wrap;html=1;fillColor=none;fontColor=#0066ff;strokeColor=#A0A0A0;arcSize=5;strokeWidth=2;fontFamily=JetBrains Mono;fontSource=https%3A%2F%2Ffonts.googleapis.com%2Fcss%3Ffamily%3DJetBrains%2BMono;gradientColor=none;fillStyle=hatch;" vertex="1" parent="1">
                    <mxGeometry x="390" y="230" width="160" height="160" as="geometry"/>
                </mxCell>
                <mxCell id="154" value="" style="rounded=1;whiteSpace=wrap;html=1;fillColor=none;fontColor=#0066ff;strokeColor=#A0A0A0;arcSize=5;strokeWidth=2;fontFamily=JetBrains Mono;fontSource=https%3A%2F%2Ffonts.googleapis.com%2Fcss%3Ffamily%3DJetBrains%2BMono;gradientColor=none;fillStyle=hatch;" vertex="1" parent="1">
                    <mxGeometry x="570" y="230" width="160" height="160" as="geometry"/>
                </mxCell>
                <mxCell id="155" style="edgeStyle=none;html=1;exitX=0.5;exitY=0.5;exitDx=0;exitDy=0;exitPerimeter=0;entryX=0;entryY=0.5;entryDx=0;entryDy=0;fontFamily=JetBrains Mono;fontSource=https%3A%2F%2Ffonts.googleapis.com%2Fcss%3Ffamily%3DJetBrains%2BMono;fontSize=14;fontColor=#0066FF;strokeWidth=2;fillColor=#60a917;strokeColor=#2D7600;" edge="1" parent="1" source="156" target="152">
                    <mxGeometry relative="1" as="geometry"/>
                </mxCell>
                <mxCell id="156" value="&lt;font color=&quot;#0066ff&quot; style=&quot;font-size: 14px;&quot;&gt;User&lt;/font&gt;" style="shape=umlActor;verticalLabelPosition=bottom;verticalAlign=top;html=1;outlineConnect=0;fillColor=#0066FF;fontColor=#ffffff;strokeColor=#0066FF;strokeWidth=2;fontFamily=JetBrains Mono;fontSource=https%3A%2F%2Ffonts.googleapis.com%2Fcss%3Ffamily%3DJetBrains%2BMono;fontStyle=0;fontSize=14;" vertex="1" parent="1">
                    <mxGeometry x="40" y="280" width="30" height="60" as="geometry"/>
                </mxCell>
                <mxCell id="157" value="Create VirtualMachine" style="text;html=1;strokeColor=none;fillColor=none;align=center;verticalAlign=middle;whiteSpace=wrap;rounded=0;strokeWidth=2;fontFamily=JetBrains Mono;fontSource=https%3A%2F%2Ffonts.googleapis.com%2Fcss%3Ffamily%3DJetBrains%2BMono;fontSize=14;fontColor=#0066FF;opacity=30;" vertex="1" parent="1">
                    <mxGeometry x="110" y="270" width="60" height="30" as="geometry"/>
                </mxCell>
                <mxCell id="158" value="Node 1" style="text;html=1;strokeColor=none;fillColor=none;align=left;verticalAlign=middle;whiteSpace=wrap;rounded=0;fontColor=#0066ff;strokeWidth=2;fontFamily=JetBrains Mono;fontSource=https%3A%2F%2Ffonts.googleapis.com%2Fcss%3Ffamily%3DJetBrains%2BMono;fontSize=14;fontStyle=1" vertex="1" parent="1">
                    <mxGeometry x="220" y="240" width="60" height="20" as="geometry"/>
                </mxCell>
                <mxCell id="159" value="Node 2" style="text;html=1;strokeColor=none;fillColor=none;align=left;verticalAlign=middle;whiteSpace=wrap;rounded=0;fontColor=#0066ff;strokeWidth=2;fontFamily=JetBrains Mono;fontSource=https%3A%2F%2Ffonts.googleapis.com%2Fcss%3Ffamily%3DJetBrains%2BMono;fontSize=14;fontStyle=1" vertex="1" parent="1">
                    <mxGeometry x="400" y="240" width="60" height="20" as="geometry"/>
                </mxCell>
                <mxCell id="160" value="Node 3" style="text;html=1;strokeColor=none;fillColor=none;align=left;verticalAlign=middle;whiteSpace=wrap;rounded=0;fontColor=#0066ff;strokeWidth=2;fontFamily=JetBrains Mono;fontSource=https%3A%2F%2Ffonts.googleapis.com%2Fcss%3Ffamily%3DJetBrains%2BMono;fontSize=14;fontStyle=1" vertex="1" parent="1">
                    <mxGeometry x="580" y="240" width="60" height="20" as="geometry"/>
                </mxCell>
                <mxCell id="161" style="edgeStyle=orthogonalEdgeStyle;html=1;exitX=0.5;exitY=1;exitDx=0;exitDy=0;strokeWidth=2;fontFamily=JetBrains Mono;fontSource=https%3A%2F%2Ffonts.googleapis.com%2Fcss%3Ffamily%3DJetBrains%2BMono;fontSize=12;fontColor=#0066FF;fillColor=#60a917;strokeColor=#2D7600;" edge="1" parent="1" source="162" target="171">
                    <mxGeometry relative="1" as="geometry">
                        <mxPoint x="290" y="330" as="targetPoint"/>
                    </mxGeometry>
                </mxCell>
                <mxCell id="162" value="VirtualMachine" style="rounded=1;whiteSpace=wrap;html=1;strokeColor=#001DBC;strokeWidth=2;fontFamily=JetBrains Mono;fontSource=https%3A%2F%2Ffonts.googleapis.com%2Fcss%3Ffamily%3DJetBrains%2BMono;fontSize=12;fontColor=#ffffff;fillColor=#0050ef;" vertex="1" parent="1">
                    <mxGeometry x="230" y="270" width="120" height="30" as="geometry"/>
                </mxCell>
                <mxCell id="163" value="VirtualDisk" style="rounded=1;whiteSpace=wrap;html=1;strokeColor=#001DBC;strokeWidth=2;fontFamily=JetBrains Mono;fontSource=https%3A%2F%2Ffonts.googleapis.com%2Fcss%3Ffamily%3DJetBrains%2BMono;fontSize=12;fontColor=#ffffff;fillColor=#0050ef;opacity=30;dashed=1;" vertex="1" parent="1">
                    <mxGeometry x="590" y="150" width="120" height="30" as="geometry"/>
                </mxCell>
                <mxCell id="164" value="Step 1" style="text;html=1;strokeColor=none;fillColor=none;align=left;verticalAlign=middle;whiteSpace=wrap;rounded=0;fontColor=#0066ff;strokeWidth=2;fontFamily=JetBrains Mono;fontSource=https%3A%2F%2Ffonts.googleapis.com%2Fcss%3Ffamily%3DJetBrains%2BMono;fontSize=14;fontStyle=1" vertex="1" parent="1">
                    <mxGeometry x="40" y="50" width="60" height="20" as="geometry"/>
                </mxCell>
                <mxCell id="165" value="Step 2" style="text;html=1;strokeColor=none;fillColor=none;align=left;verticalAlign=middle;whiteSpace=wrap;rounded=0;fontColor=#0066ff;strokeWidth=2;fontFamily=JetBrains Mono;fontSource=https%3A%2F%2Ffonts.googleapis.com%2Fcss%3Ffamily%3DJetBrains%2BMono;fontSize=14;fontStyle=1" vertex="1" parent="1">
                    <mxGeometry x="40" y="230" width="60" height="20" as="geometry"/>
                </mxCell>
                <mxCell id="166" value="Step 2" style="text;html=1;strokeColor=none;fillColor=none;align=left;verticalAlign=middle;whiteSpace=wrap;rounded=0;fontColor=#0066ff;strokeWidth=2;fontFamily=JetBrains Mono;fontSource=https%3A%2F%2Ffonts.googleapis.com%2Fcss%3Ffamily%3DJetBrains%2BMono;fontSize=14;fontStyle=1" vertex="1" parent="1">
                    <mxGeometry x="40" y="230" width="60" height="20" as="geometry"/>
                </mxCell>
                <mxCell id="168" value="VirtualDisk" style="rounded=1;whiteSpace=wrap;html=1;strokeColor=#001DBC;strokeWidth=2;fontFamily=JetBrains Mono;fontSource=https%3A%2F%2Ffonts.googleapis.com%2Fcss%3Ffamily%3DJetBrains%2BMono;fontSize=12;fontColor=#ffffff;fillColor=#0050ef;opacity=30;dashed=1;" vertex="1" parent="1">
                    <mxGeometry x="410" y="150" width="120" height="30" as="geometry"/>
                </mxCell>
                <mxCell id="169" value="VirtualDisk" style="rounded=1;whiteSpace=wrap;html=1;strokeColor=#001DBC;strokeWidth=2;fontFamily=JetBrains Mono;fontSource=https%3A%2F%2Ffonts.googleapis.com%2Fcss%3Ffamily%3DJetBrains%2BMono;fontSize=12;fontColor=#ffffff;fillColor=#0050ef;opacity=30;dashed=1;" vertex="1" parent="1">
                    <mxGeometry x="230" y="150" width="120" height="30" as="geometry"/>
                </mxCell>
                <mxCell id="171" value="VirtualDisk" style="rounded=1;whiteSpace=wrap;html=1;strokeColor=#001DBC;strokeWidth=2;fontFamily=JetBrains Mono;fontSource=https%3A%2F%2Ffonts.googleapis.com%2Fcss%3Ffamily%3DJetBrains%2BMono;fontSize=12;fontColor=#ffffff;fillColor=#0050ef;" vertex="1" parent="1">
                    <mxGeometry x="230" y="330" width="120" height="30" as="geometry"/>
                </mxCell>
                <mxCell id="173" value="⏳ WaitForFirstConsumer" style="rounded=1;whiteSpace=wrap;html=1;strokeColor=#3700CC;strokeWidth=2;fontFamily=JetBrains Mono;fontSource=https%3A%2F%2Ffonts.googleapis.com%2Fcss%3Ffamily%3DJetBrains%2BMono;fontSize=12;fontColor=#ffffff;fillColor=#6a00ff;dashed=1;" vertex="1" parent="1">
                    <mxGeometry x="230" y="130" width="480" height="20" as="geometry"/>
                </mxCell>
            </root>
        </mxGraphModel>
    </diagram>
</mxfile>
